<?xml version="1.0" encoding="UTF-8" standalone="no"?>
<svg
   xmlns:dc="http://purl.org/dc/elements/1.1/"
   xmlns:cc="http://creativecommons.org/ns#"
   xmlns:rdf="http://www.w3.org/1999/02/22-rdf-syntax-ns#"
   xmlns:svg="http://www.w3.org/2000/svg"
   xmlns="http://www.w3.org/2000/svg"
   width="128"
   height="128"
   viewBox="0 0 33.866666 33.866668"
   version="1.1"
   id="svg8">
  <defs
     id="defs2" />
  <metadata
     id="metadata5">
    <rdf:RDF>
      <cc:Work
         rdf:about="">
        <dc:format>image/svg+xml</dc:format>
        <dc:type
           rdf:resource="http://purl.org/dc/dcmitype/StillImage" />
        <dc:title></dc:title>
      </cc:Work>
    </rdf:RDF>
  </metadata>
  <g
     id="layer1"
     transform="matrix(0.67601128,0,0,0.67601128,0.33070005,-177.5621)">
    <g
       id="g4589"
       transform="matrix(1.271087,0,0,1.271087,-4.6081697,-75.277769)">
      <path
         d="m 14.360366,267.01214 6.376582,9.29937 8.569047,7.32874 -11.241777,0.8726 -10.6313986,3.75664 4.8651946,-10.17197 z"
         id="path4518-6"
         style="fill:#eceb12;fill-opacity:1;stroke:none;stroke-width:50;stroke-linecap:square;stroke-linejoin:miter;stroke-miterlimit:4;stroke-dasharray:none;stroke-opacity:1;paint-order:normal" />
      <path
         transform="rotate(-60,21.35119,276.53641)"
         d="m 13.831198,261.72039 6.376583,9.29937 8.569047,7.32874 -11.241777,0.8726 -10.6313988,3.75664 4.8651948,-10.17196 z"
         id="path4518-3-7"
         style="fill:#f4f36b;fill-opacity:1;stroke:none;stroke-width:50;stroke-linecap:square;stroke-linejoin:miter;stroke-miterlimit:4;stroke-dasharray:none;stroke-opacity:1;paint-order:normal" />
      <path
         transform="rotate(-31.838248,17.03306,279.64063)"
         d="m 14.360366,267.01214 6.376582,9.29937 8.569047,7.32874 -11.241777,0.8726 -10.6313986,3.75664 4.8651946,-10.17197 z"
         id="path4518"
         style="fill:#f2f151;fill-opacity:1;stroke:none;stroke-width:50;stroke-linecap:square;stroke-linejoin:miter;stroke-miterlimit:4;stroke-dasharray:none;stroke-opacity:1;paint-order:normal" />
      <path
         transform="rotate(-90.500039,19.391326,276.73241)"
         d="m 13.831198,261.72039 6.376583,9.29937 8.569047,7.32874 -11.241777,0.8726 -10.6313988,3.75664 4.8651948,-10.17196 z"
         id="path4518-3"
         style="fill:#f8f79d;fill-opacity:1;stroke:none;stroke-width:50;stroke-linecap:square;stroke-linejoin:miter;stroke-miterlimit:4;stroke-dasharray:none;stroke-opacity:1;paint-order:normal" />
      <circle
         r="8.6970606"
         cy="279.87451"
         cx="16.698975"
         id="path4535"
         style="fill:#f3f25a;fill-opacity:1;stroke:none;stroke-width:43.48530579;stroke-linecap:square;stroke-linejoin:miter;stroke-miterlimit:4;stroke-dasharray:none;stroke-opacity:1;paint-order:normal" />
      <path
         id="path4535-5"
         transform="matrix(0.26458333,0,0,0.26458333,0,263.13332)"
         d="M 61.871094,30.150391 A 32.87078,32.87078 0 0 0 30.390625,62.970703 32.87078,32.87078 0 0 0 61.871094,95.771484 Z"
         style="fill:#f6f584;fill-opacity:1;stroke:none;stroke-width:164.35391235;stroke-linecap:square;stroke-linejoin:miter;stroke-miterlimit:4;stroke-dasharray:none;stroke-opacity:1;paint-order:normal" />
    </g>
  </g>
  <circle
     r="7.9429326"
     cy="22.999472"
     cx="13.080153"
     id="path879"
     style="fill:#aaaaaa;fill-opacity:1;stroke:none;stroke-width:50;stroke-linecap:square;stroke-linejoin:miter;stroke-miterlimit:4;stroke-dasharray:none;stroke-opacity:1;paint-order:normal" />
  <circle
     r="7.9429326"
     cy="19.08728"
     cx="22.050529"
     id="path879-3"
     style="fill:#bcbcbc;fill-opacity:1;stroke:none;stroke-width:50;stroke-linecap:square;stroke-linejoin:miter;stroke-miterlimit:4;stroke-dasharray:none;stroke-opacity:1;paint-order:normal" />
  <circle
     r="7.9429326"
     cy="25.014841"
     cx="24.34252"
     id="path879-3-6"
     style="fill:#b7b7b7;fill-opacity:1;stroke:none;stroke-width:50;stroke-linecap:square;stroke-linejoin:miter;stroke-miterlimit:4;stroke-dasharray:none;stroke-opacity:1;paint-order:normal" />
</svg>
