<?xml version="1.0" encoding="UTF-8" standalone="no"?>
<svg
   xmlns:dc="http://purl.org/dc/elements/1.1/"
   xmlns:cc="http://creativecommons.org/ns#"
   xmlns:rdf="http://www.w3.org/1999/02/22-rdf-syntax-ns#"
   xmlns:svg="http://www.w3.org/2000/svg"
   xmlns="http://www.w3.org/2000/svg"
   id="svg8"
   version="1.1"
   viewBox="0 0 33.866666 33.866668"
   height="128"
   width="128">
  <defs
     id="defs2" />
  <metadata
     id="metadata5">
    <rdf:RDF>
      <cc:Work
         rdf:about="">
        <dc:format>image/svg+xml</dc:format>
        <dc:type
           rdf:resource="http://purl.org/dc/dcmitype/StillImage" />
        <dc:title></dc:title>
      </cc:Work>
    </rdf:RDF>
  </metadata>
  <g
     transform="translate(0,-263.13332)"
     id="layer1">
    <g
       transform="matrix(1.271087,0,0,1.271087,-4.6081697,-75.277769)"
       id="g4589">
      <path
         style="fill:#eceb12;fill-opacity:1;stroke:none;stroke-width:50;stroke-linecap:square;stroke-linejoin:miter;stroke-miterlimit:4;stroke-dasharray:none;stroke-opacity:1;paint-order:normal"
         id="path4518-6"
         d="m 14.360366,267.01214 6.376582,9.29937 8.569047,7.32874 -11.241777,0.8726 -10.6313986,3.75664 4.8651946,-10.17197 z" />
      <path
         style="fill:#f4f36b;fill-opacity:1;stroke:none;stroke-width:50;stroke-linecap:square;stroke-linejoin:miter;stroke-miterlimit:4;stroke-dasharray:none;stroke-opacity:1;paint-order:normal"
         id="path4518-3-7"
         d="m 13.831198,261.72039 6.376583,9.29937 8.569047,7.32874 -11.241777,0.8726 -10.6313988,3.75664 4.8651948,-10.17196 z"
         transform="rotate(-60,21.35119,276.53641)" />
      <path
         style="fill:#f2f151;fill-opacity:1;stroke:none;stroke-width:50;stroke-linecap:square;stroke-linejoin:miter;stroke-miterlimit:4;stroke-dasharray:none;stroke-opacity:1;paint-order:normal"
         id="path4518"
         d="m 14.360366,267.01214 6.376582,9.29937 8.569047,7.32874 -11.241777,0.8726 -10.6313986,3.75664 4.8651946,-10.17197 z"
         transform="rotate(-31.838248,17.03306,279.64063)" />
      <path
         style="fill:#f8f79d;fill-opacity:1;stroke:none;stroke-width:50;stroke-linecap:square;stroke-linejoin:miter;stroke-miterlimit:4;stroke-dasharray:none;stroke-opacity:1;paint-order:normal"
         id="path4518-3"
         d="m 13.831198,261.72039 6.376583,9.29937 8.569047,7.32874 -11.241777,0.8726 -10.6313988,3.75664 4.8651948,-10.17196 z"
         transform="rotate(-90.500039,19.391326,276.73241)" />
      <circle
         style="fill:#f3f25a;fill-opacity:1;stroke:none;stroke-width:43.48530579;stroke-linecap:square;stroke-linejoin:miter;stroke-miterlimit:4;stroke-dasharray:none;stroke-opacity:1;paint-order:normal"
         id="path4535"
         cx="16.698975"
         cy="279.87451"
         r="8.6970606" />
      <path
         style="fill:#f6f584;fill-opacity:1;stroke:none;stroke-width:164.35391235;stroke-linecap:square;stroke-linejoin:miter;stroke-miterlimit:4;stroke-dasharray:none;stroke-opacity:1;paint-order:normal"
         d="M 61.871094,30.150391 A 32.87078,32.87078 0 0 0 30.390625,62.970703 32.87078,32.87078 0 0 0 61.871094,95.771484 Z"
         transform="matrix(0.26458333,0,0,0.26458333,0,263.13332)"
         id="path4535-5" />
    </g>
  </g>
</svg>
